ply
format ascii 1.0
element face 0
property list uchar int vertex_indices
element vertex 920
property float x
property float y
property float z
property uchar diffuse_red
property uchar diffuse_green
property uchar diffuse_blue
end_header
-4.849441e-001 6.219851e-001 2.387847e+000 46 48 37
-4.896834e-001 5.523253e-001 2.337988e+000 50 49 45
-5.161880e-001 5.362350e-001 2.335363e+000 125 112 95
-4.704995e-001 6.927467e-001 2.434449e+000 43 43 38
-4.729755e-001 6.625743e-001 2.414246e+000 56 47 42
-4.746599e-001 6.610400e-001 2.413824e+000 56 47 42
-5.123641e-001 4.661250e-001 2.274609e+000 127 113 94
-5.207652e-001 4.965211e-001 2.305542e+000 126 114 93
-5.261201e-001 6.877810e-001 2.457034e+000 49 50 44
-5.441277e-001 5.757971e-001 2.373275e+000 49 46 37
-5.466300e-001 5.501691e-001 2.353728e+000 44 45 38
-4.633787e-001 7.288368e-001 2.463402e+000 49 39 33
-4.823888e-001 5.804720e-001 2.354470e+000 47 43 34
-4.838275e-001 7.053566e-001 2.447902e+000 123 109 86
-4.935913e-001 8.156093e-001 2.541777e+000 131 113 95
-4.570041e-001 7.971442e-001 2.508056e+000 50 45 37
-4.690594e-001 8.648368e-001 2.568615e+000 116 101 80
-5.019524e-001 8.773644e-001 2.588508e+000 61 48 34
-5.080448e-001 8.217738e-001 2.547536e+000 48 38 25
-5.159881e-001 8.069044e-001 2.535516e+000 40 33 21
2.230167e-001 5.966838e-001 2.099659e+000 64 52 35
2.024240e-001 6.260500e-001 2.124019e+000 58 44 31
2.492333e-001 8.476171e-001 2.279137e+000 62 53 36
-4.663425e-001 8.094674e-001 2.525653e+000 43 33 21
2.048261e-001 6.576767e-001 2.145080e+000 49 36 17
-5.349010e-001 6.576668e-001 2.429471e+000 58 51 45
-4.549095e-001 8.272245e-001 2.534497e+000 53 39 26
2.259330e-001 8.008976e-001 2.250798e+000 53 40 30
-5.205059e-001 7.798564e-001 2.520196e+000 48 39 32
-5.229958e-001 7.486862e-001 2.497587e+000 46 37 23
-1.213699e-001 9.323681e-001 2.488397e+000 53 52 47
-2.328027e-001 7.228572e-001 2.362146e+000 130 113 95
-3.169363e-001 9.665573e-001 2.581701e+000 53 49 44
-3.169363e-001 9.665573e-001 2.581701e+000 53 49 44
-3.088164e-001 5.370815e-001 2.241515e+000 124 110 89
-1.203697e-001 7.577532e-001 2.350617e+000 49 50 44
3.176834e-001 6.891343e-001 2.135525e+000 140 133 117
-2.990832e-001 1.216844e+000 2.767909e+000 44 44 35
-2.912800e-001 9.496081e-001 2.558912e+000 129 114 94
-3.166062e-001 7.085944e-001 2.384404e+000 46 46 39
-2.488429e-001 9.154372e-001 2.513785e+000 128 113 91
-2.488429e-001 9.154372e-001 2.513785e+000 128 113 91
-2.613804e-001 7.325104e-001 2.381910e+000 128 111 90
-2.380866e-001 8.825798e-001 2.488592e+000 52 48 41
-2.246642e-001 9.280447e-001 2.512653e+000 50 50 43
-2.700352e-001 5.449676e-001 2.247253e+000 47 46 40
-2.172225e-001 9.709513e-001 2.543796e+000 42 41 37
-2.771634e-001 5.205213e-001 2.219499e+000 44 48 42
-5.365458e-001 6.261602e-001 2.409066e+000 49 47 39
-5.330864e-001 6.567487e-001 2.431125e+000 58 51 45
-4.631392e-001 7.955731e-001 2.514320e+000 49 46 39
-4.631392e-001 7.955731e-001 2.514320e+000 49 46 39
-3.797119e-001 5.871242e-001 2.316734e+000 51 49 43
-3.325416e-001 6.879724e-001 2.375538e+000 127 112 87
-2.992350e-001 9.129658e-001 2.535637e+000 127 110 92
-3.374360e-001 5.480068e-001 2.271162e+000 49 43 40
-3.374360e-001 5.480068e-001 2.271162e+000 49 43 40
-2.788304e-001 7.948555e-001 2.434061e+000 48 47 37
-3.058811e-001 5.811415e-001 2.277825e+000 49 48 42
-2.883853e-001 6.912820e-001 2.358669e+000 131 114 94
-4.974638e-001 5.223115e-001 2.316806e+000 133 118 97
-3.795432e-001 5.400944e-001 2.282049e+000 50 47 40
-2.727279e-001 5.819725e-001 2.263635e+000 48 47 43
2.717860e-001 1.845799e+000 3.040526e+000 45 41 31
-3.626864e-001 6.489196e-001 2.356771e+000 124 109 89
-3.527812e-001 5.897948e-001 2.307383e+000 119 114 97
-3.491409e-001 6.171508e-001 2.326544e+000 47 44 38
-3.079965e-001 8.258193e-001 2.468937e+000 53 53 45
-3.011699e-001 8.688687e-001 2.502993e+000 61 57 48
-3.011699e-001 8.688687e-001 2.502993e+000 61 57 48
-2.389499e-001 1.324266e+000 2.826565e+000 57 47 41
-3.186630e-001 6.041286e-001 2.303952e+000 133 121 104
-2.883617e-001 5.714886e-001 2.265849e+000 137 124 105
2.179938e-001 6.422767e-001 2.138844e+000 137 124 102
-1.452894e-001 6.853447e-001 2.303750e+000 63 58 47
-1.300195e-001 8.468492e-001 2.398921e+000 127 118 105
3.495876e-001 9.206768e-001 2.297151e+000 139 125 112
-3.107189e-001 1.028629e+000 2.627186e+000 43 43 35
-3.501443e-001 6.328323e-001 2.343489e+000 50 46 43
-2.491601e-001 1.192802e+000 2.727759e+000 129 114 91
-2.970416e-001 5.335150e-001 2.242157e+000 127 111 88
-1.858002e-001 7.606599e-001 2.368046e+000 46 47 39
-1.596668e-001 6.814433e-001 2.305429e+000 37 29 19
-2.904350e-001 5.325606e-001 2.242548e+000 127 111 88
-2.493912e-001 6.733632e-001 2.334523e+000 46 42 38
-2.637527e-001 6.227693e-001 2.298160e+000 47 42 36
-3.068541e-001 8.104009e-001 2.458143e+000 133 117 96
3.762161e-001 1.857722e+000 3.018661e+000 60 56 47
-3.457771e-001 6.876562e-001 2.382199e+000 128 116 93
-2.534382e-001 1.212811e+000 2.743222e+000 47 44 39
2.676606e-001 9.181949e-001 2.326520e+000 135 120 101
3.218455e-001 7.699665e-001 2.194439e+000 139 122 105
-4.615076e-001 8.200642e-001 2.526225e+000 137 125 104
2.493946e-001 9.433371e-001 2.351433e+000 54 43 33
-1.514835e-001 6.946709e-001 2.310537e+000 137 127 115
3.439571e-001 8.048897e-001 2.212441e+000 142 130 116
-5.193788e-001 4.594188e-001 2.274791e+000 126 113 97
-5.994450e-001 5.533942e-001 2.172939e+000 126 111 91
-4.634059e-001 7.389729e-001 2.677054e+000 62 52 40
7.160507e-001 -3.910905e-001 2.508907e+000 72 91 106
7.160506e-001 -3.910904e-001 2.508907e+000 72 91 106
-3.575391e-001 5.503443e-001 2.285262e+000 130 114 91
-2.625846e-001 7.314466e-001 2.382661e+000 128 111 90
6.888684e-002 1.534379e+000 2.879216e+000 130 115 94
2.563836e-001 8.778294e-001 2.297001e+000 134 118 95
7.830387e-001 -4.059334e-001 2.468042e+000 192 210 222
-5.150711e-001 6.293273e-001 2.401213e+000 45 42 35
-3.791033e-001 5.868437e-001 2.318809e+000 51 49 43
-3.498903e-001 4.482910e-001 2.201662e+000 48 46 40
7.497117e-001 -3.724073e-001 2.505758e+000 190 208 222
9.003288e-001 8.112986e-002 2.763022e+000 176 185 194
6.942427e-001 -4.203466e-001 2.495239e+000 181 199 213
7.418907e-001 -4.506538e-001 2.450253e+000 114 133 147
7.635937e-001 -4.372051e-001 2.451277e+000 191 209 223
9.050837e-001 2.457496e-004 2.723943e+000 178 188 200
9.305811e-001 9.108752e-002 2.744658e+000 183 192 202
9.399535e-001 5.972319e-002 2.723792e+000 191 201 211
9.756645e-001 9.811905e-002 2.720080e+000 188 196 207
1.016993e+000 -1.853953e-001 2.495345e+000 186 200 209
-5.422428e-001 5.656163e-001 2.363295e+000 133 119 102
-5.422418e-001 5.656162e-001 2.363294e+000 133 119 102
-4.927369e-001 7.641218e-001 2.491943e+000 46 43 36
-5.236689e-001 4.305392e-001 2.260331e+000 126 115 96
-3.525160e-001 5.895223e-001 2.308985e+000 119 114 97
1.103827e-001 1.578923e+000 2.891577e+000 132 120 106
6.848707e-001 -4.041547e-001 2.515112e+000 176 194 209
6.848707e-001 -4.041547e-001 2.515112e+000 176 194 209
7.494469e-001 -4.113493e-001 2.475272e+000 189 208 222
-2.980032e-001 5.650889e-001 2.271953e+000 124 113 90
-1.730773e-001 5.541673e-001 2.217258e+000 131 123 110
-1.555536e-001 5.990582e-001 2.242226e+000 42 35 27
-1.554572e-001 5.991808e-001 2.242203e+000 42 35 27
-8.197723e-002 9.643254e-001 2.492025e+000 46 45 39
2.884120e-001 5.711883e-001 2.049652e+000 136 123 107
3.202436e-001 7.893402e-001 2.203890e+000 138 125 108
3.471771e-001 8.778763e-001 2.258960e+000 66 53 37
6.388749e-001 -4.726026e-001 2.480394e+000 183 203 217
7.426318e-001 -4.354716e-001 2.458983e+000 184 206 220
9.293893e-001 1.976450e-002 2.716303e+000 180 190 202
-4.831519e-001 8.167454e-001 2.527291e+000 133 122 104
-4.687946e-001 8.117879e-001 2.520184e+000 43 33 21
-1.674057e-001 7.717079e-001 2.375602e+000 139 132 120
-1.907631e-001 5.541991e-001 2.223566e+000 131 123 111
-1.820335e-001 5.585806e-001 2.212614e+000 137 129 117
-1.681095e-001 5.157936e-001 2.184821e+000 128 120 106
6.336461e-001 -5.006513e-001 2.456984e+000 181 200 214
9.314824e-001 -1.898545e-001 2.552933e+000 176 192 205
3.548317e-001 8.078267e-001 2.215868e+000 49 35 22
9.258383e-001 5.684388e-002 2.734412e+000 66 78 90
9.481511e-001 -1.370491e-001 2.550314e+000 67 85 97
9.481511e-001 -1.370491e-001 2.550314e+000 67 85 97
9.904291e-001 1.260784e-001 2.721903e+000 189 201 213
9.904291e-001 1.260784e-001 2.721903e+000 189 201 213
5.364611e-001 -5.056615e-001 2.488483e+000 188 206 220
7.589665e-001 -2.740986e-001 2.578337e+000 124 143 155
6.992161e-001 -4.628995e-001 2.472301e+000 184 202 216
6.992163e-001 -4.628992e-001 2.472301e+000 184 202 216
4.413505e-001 -4.305043e-001 2.598928e+000 172 190 202
-2.526612e-001 9.870966e-001 2.569800e+000 131 114 95
4.413505e-001 -4.305043e-001 2.598928e+000 172 190 202
9.632852e-001 4.352079e-002 2.709727e+000 182 192 202
-4.653672e-001 8.310898e-001 2.532864e+000 47 37 29
9.399535e-001 5.972319e-002 2.723792e+000 191 201 211
5.531536e-001 -3.757257e-001 2.591278e+000 183 201 215
5.531536e-001 -3.757257e-001 2.591278e+000 183 201 215
4.848432e-001 -4.095367e-001 2.590220e+000 179 196 212
9.018487e-001 -1.935014e-001 2.575451e+000 173 189 202
7.301025e-001 -3.652754e-001 2.521506e+000 192 210 224
4.815871e-001 -4.211107e-001 2.583934e+000 177 196 211
1.379193e-001 1.554531e+000 2.869411e+000 53 43 34
9.518312e-001 1.082870e-001 2.735771e+000 54 65 77
9.175378e-001 9.494505e-002 2.771935e+000 164 174 184
7.269050e-001 -4.035546e-001 2.491603e+000 172 190 205
-5.246229e-001 7.500509e-001 2.483768e+000 46 37 23
3.358863e-001 7.938419e-001 2.197385e+000 137 125 109
3.195407e-001 7.892457e-001 2.203536e+000 138 125 108
9.087352e-001 -2.273637e-001 2.538499e+000 173 187 198
8.972096e-001 3.675325e-002 2.742846e+000 176 190 202
3.152916e-001 6.337081e-001 2.086089e+000 45 37 19
-1.666964e-001 5.864744e-001 2.241748e+000 38 29 20
-1.748427e-001 5.446604e-001 2.211767e+000 51 44 36
-3.124403e-001 5.363814e-001 2.243195e+000 124 110 89
-4.897870e-001 6.893549e-001 2.429117e+000 49 45 36
-3.199442e-001 5.859384e-001 2.295689e+000 46 43 38
-2.648441e-001 1.269843e+000 2.790167e+000 128 117 107
-2.648441e-001 1.269843e+000 2.790167e+000 128 117 107
9.416028e-001 1.076943e-001 2.768088e+000 116 126 137
4.580009e-001 -4.128728e-001 2.604137e+000 78 97 112
9.067458e-001 -2.069663e-001 2.564244e+000 85 99 110
6.510942e-001 -3.987072e-001 2.530283e+000 110 132 146
-8.088055e-001 -4.583330e-001 2.976783e+000 99 87 71
1.808796e-001 -3.228365e-001 2.779290e+000 117 135 148
-1.598334e-001 4.727134e-001 2.145833e+000 47 44 39
-1.598334e-001 4.727134e-001 2.145833e+000 47 44 39
2.910961e-001 5.665021e-001 2.021042e+000 87 78 63
6.489518e-001 -4.813111e-001 2.472500e+000 163 182 197
6.489518e-001 -4.813111e-001 2.472500e+000 163 182 197
7.160506e-001 -3.910904e-001 2.508907e+000 72 91 106
2.879314e-001 -3.977580e-001 2.683419e+000 183 202 216
1.240459e-002 -3.091446e-001 2.840704e+000 164 180 193
-8.056838e-001 -6.330858e-001 2.844835e+000 114 108 92
2.756009e-001 -3.708739e-001 2.708578e+000 140 162 175
2.756009e-001 -3.708739e-001 2.708578e+000 140 162 175
-2.708155e-002 -3.130941e-001 2.854601e+000 161 176 189
-3.307252e-001 7.263721e-001 2.403099e+000 125 109 93
2.559929e-001 -3.710788e-001 2.712365e+000 182 201 215
2.353597e-001 -3.641212e-001 2.717207e+000 126 144 158
4.420413e-002 -3.479020e-001 2.806115e+000 162 180 192
1.358858e-001 -2.811029e-001 2.815345e+000 167 181 191
8.935165e-001 -1.876278e-001 2.585660e+000 173 189 201
-6.426649e-001 7.813216e-001 3.803277e+000 100 93 75
7.022069e-001 -4.030311e-001 2.503370e+000 112 134 148
3.298580e-001 -4.030697e-001 2.665556e+000 176 195 210
6.601008e-001 -3.726322e-001 2.554957e+000 107 128 142
9.855079e-002 -3.147580e-001 2.806482e+000 161 177 190
1.871480e-001 -2.880591e-001 2.793797e+000 162 178 188
7.744667e-002 -2.725420e-001 2.835528e+000 70 82 90
-2.871295e-001 5.696577e-001 2.270315e+000 137 124 105
-3.022075e-001 6.566826e-001 2.338900e+000 115 108 88
6.388748e-001 -4.726028e-001 2.480394e+000 183 203 217
7.299752e-001 -4.096882e-001 2.494177e+000 180 198 212
4.602201e-001 -4.076039e-001 2.604627e+000 104 123 138
4.963318e-001 -4.002087e-001 2.596372e+000 177 196 210
2.953634e-001 -3.710057e-001 2.698749e+000 176 195 209
1.007635e+000 1.474357e-001 2.757051e+000 184 195 204
-2.058050e-001 1.270377e+000 2.762800e+000 126 114 98
7.324913e-001 -4.622471e-001 2.446074e+000 185 203 217
7.582197e-001 -4.530508e-001 2.440755e+000 187 205 217
6.479060e-001 -4.449613e-001 2.500012e+000 181 200 214
4.790163e-001 -4.510405e-001 2.568472e+000 179 198 212
7.191050e-001 -4.237235e-001 2.480684e+000 182 201 215
7.269050e-001 -4.035546e-001 2.491603e+000 172 190 205
4.631365e-001 -4.161207e-001 2.598513e+000 171 190 205
6.378914e-001 -3.995135e-001 2.545360e+000 186 210 226
6.378901e-001 -3.995140e-001 2.545359e+000 186 210 226
1.819586e-001 -3.388391e-001 2.758200e+000 176 194 208
1.819585e-001 -3.388391e-001 2.758200e+000 176 194 208
1.719063e-001 -3.388636e-001 2.763225e+000 91 110 124
6.858339e-002 -3.339692e-001 2.804027e+000 156 174 186
1.877497e-001 -3.042585e-001 2.783730e+000 162 178 191
1.133168e-001 -2.952176e-001 2.813518e+000 166 182 192
9.758457e-001 1.087658e-001 2.748331e+000 84 94 106
-1.514507e-001 5.561078e-001 2.214314e+000 114 110 99
-1.514507e-001 5.561078e-001 2.214314e+000 114 110 99
-1.570753e-001 5.742262e-001 2.228269e+000 38 28 16
-1.834234e-001 5.786348e-001 2.241128e+000 129 121 110
2.148707e-001 6.987081e-001 2.184434e+000 137 124 107
-5.658446e-001 9.965553e-001 3.899263e+000 127 138 144
7.439115e-001 -4.267826e-001 2.466436e+000 77 100 114
7.439115e-001 -4.267826e-001 2.466436e+000 77 100 114
7.535520e-001 -3.924819e-001 2.490274e+000 191 210 225
6.236731e-001 -3.969609e-001 2.546858e+000 177 198 215
6.323668e-001 -3.949572e-001 2.548572e+000 79 105 120
1.755748e-001 -3.297838e-001 2.765889e+000 169 187 202
2.076443e-002 -3.390544e-001 2.819867e+000 162 180 194
9.523042e-001 -1.488384e-001 2.567922e+000 168 185 195
9.000526e-001 1.246586e-002 2.728363e+000 166 176 188
9.329687e-001 3.798370e-002 2.728955e+000 189 202 213
9.671260e-001 1.017846e-001 2.748837e+000 176 189 198
-2.000379e-001 5.146679e-001 2.201579e+000 133 126 108
-3.544339e-001 4.904180e-001 2.230651e+000 44 43 33
-3.546535e-001 4.911285e-001 2.230122e+000 44 43 33
-1.766120e-001 4.687735e-001 2.163053e+000 35 34 29
-1.766120e-001 4.687735e-001 2.163053e+000 35 34 29
3.237991e-001 1.957773e+000 2.918532e+000 121 118 97
3.237991e-001 1.957773e+000 2.918532e+000 121 118 97
4.393791e-001 1.804457e+000 2.961632e+000 132 115 95
3.985491e-001 1.656519e+000 2.825006e+000 136 121 98
-2.585087e-001 5.008548e-001 2.194097e+000 139 124 103
-1.615408e-001 4.704348e-001 2.149514e+000 48 48 44
-1.482232e-001 4.391351e-001 2.177952e+000 48 48 44
2.308104e-001 6.662662e-001 2.164016e+000 141 132 118
-5.834292e-001 4.478871e-001 2.303543e+000 136 121 100
-2.181841e-001 4.686042e-001 2.161113e+000 50 49 45
-1.304538e-001 7.269111e-001 2.312169e+000 43 45 39
2.616042e-001 9.402099e-001 2.351075e+000 51 42 26
2.633245e-001 9.318643e-001 2.352679e+000 51 42 26
3.004929e-001 5.391801e-001 2.031379e+000 133 124 109
-5.928392e-001 3.228324e-001 2.197449e+000 107 89 69
-3.106525e-001 1.114837e+000 2.694287e+000 133 118 97
-3.109650e-001 1.114360e+000 2.694021e+000 133 118 97
-3.449617e-001 4.991709e-001 2.227933e+000 55 54 49
-3.281017e-001 4.650528e-001 2.262570e+000 55 54 49
-3.127819e-001 7.520610e-001 2.413388e+000 57 53 50
-2.399309e-001 5.324944e-001 2.230192e+000 138 123 102
-1.989019e-001 6.543137e-001 2.291457e+000 48 47 43
-1.406140e-001 8.926097e-001 2.461748e+000 125 118 100
-1.412436e-001 8.960649e-001 2.458634e+000 125 118 100
-1.856029e-001 4.615370e-001 2.108347e+000 134 119 96
-3.440064e-001 1.591597e+000 3.080970e+000 127 112 91
-2.895525e-001 1.312037e+000 2.838601e+000 45 46 37
-3.670106e-001 4.774421e-001 2.225445e+000 134 119 96
-2.639599e-001 1.040493e+000 2.602343e+000 41 40 36
-2.423813e-001 9.543572e-001 2.541368e+000 127 113 93
-2.145354e-001 1.009681e+000 2.571243e+000 48 47 42
-2.078964e-001 1.066360e+000 2.609271e+000 48 45 40
-1.800714e-001 1.327778e+000 2.791677e+000 48 48 40
-2.052851e-001 1.371831e+000 2.684901e+000 129 114 95
-2.035351e-001 6.212843e-001 2.272215e+000 54 50 47
-1.835374e-001 7.848809e-001 2.387580e+000 52 49 44
2.061095e-001 4.818658e-001 2.027149e+000 55 54 52
2.928864e-001 4.948752e-001 1.992119e+000 60 55 49
2.932157e-001 4.898099e-001 1.994876e+000 60 55 49
-3.422386e-001 1.729642e+000 3.208875e+000 124 108 85
-4.365125e-001 1.762255e+000 2.993842e+000 124 109 85
-4.365125e-001 1.762255e+000 2.993842e+000 124 109 85
-2.122795e-001 1.837504e+000 3.248846e+000 45 38 31
-3.263162e-001 9.861620e-001 2.602822e+000 126 111 91
-2.905394e-001 9.825658e-001 2.586214e+000 127 110 92
-2.834025e-001 1.015837e+000 2.604862e+000 122 106 88
-2.834025e-001 1.015837e+000 2.604862e+000 122 106 88
-2.778715e-001 1.044843e+000 2.625599e+000 126 113 95
-2.936517e-001 6.773155e-001 2.376352e+000 123 107 91
-2.430427e-001 1.080048e+000 2.638284e+000 127 112 91
-2.216892e-001 1.092546e+000 2.638735e+000 45 41 40
-1.846627e-001 1.263536e+000 2.748228e+000 43 42 33
-2.022579e-001 1.361226e+000 2.693590e+000 133 118 99
2.733672e-001 1.686728e+000 2.821842e+000 132 120 98
3.247366e-001 1.607616e+000 2.825830e+000 57 50 47
2.597333e-001 8.157050e-001 2.262581e+000 138 127 108
2.140862e-001 3.476524e-001 1.938271e+000 158 150 131
2.521648e-001 3.567230e-001 1.922656e+000 157 146 128
2.814162e-001 3.607076e-001 1.910574e+000 162 149 132
2.827991e-001 3.585195e-001 1.912750e+000 162 149 132
3.442071e-001 3.925643e-001 1.895614e+000 118 105 86
-5.400529e-001 7.141873e-001 2.475815e+000 136 124 106
-5.476892e-001 4.840387e-001 2.299476e+000 52 44 33
-5.352111e-001 4.659637e-001 2.299661e+000 120 108 88
-5.217320e-001 5.534315e-001 2.349384e+000 43 42 37
-5.233547e-001 5.548446e-001 2.347785e+000 43 42 37
-4.966585e-001 7.145682e-001 2.465060e+000 54 50 45
-4.965850e-001 7.159620e-001 2.461551e+000 54 50 45
-4.389140e-001 1.934308e+000 3.066115e+000 120 106 80
-4.520777e-001 8.810683e-001 2.566821e+000 55 46 37
-2.127130e-001 1.843786e+000 3.263466e+000 127 114 91
-2.993772e-001 1.300926e+000 2.822942e+000 43 40 35
-3.537037e-001 6.989072e-001 2.393153e+000 47 47 40
-2.857636e-001 1.301322e+000 2.817624e+000 113 102 84
-2.848742e-001 1.302146e+000 2.818327e+000 113 102 84
-3.135621e-001 9.505155e-001 2.569650e+000 50 46 42
-3.135621e-001 9.505155e-001 2.569650e+000 50 46 42
-2.403131e-001 1.545711e+000 2.994585e+000 42 33 25
-2.403131e-001 1.545711e+000 2.994585e+000 42 33 25
-3.283459e-001 7.260507e-001 2.413407e+000 131 119 102
-3.273859e-001 7.635223e-001 2.430571e+000 120 110 92
-3.285081e-001 7.667041e-001 2.430000e+000 120 110 92
-3.337210e-001 6.545645e-001 2.346690e+000 125 114 96
-3.044798e-001 1.042604e+000 2.584798e+000 119 103 86
-3.104807e-001 1.094060e+000 2.588338e+000 129 117 98
-3.256975e-001 6.232172e-001 2.350948e+000 41 41 39
-3.150353e-001 7.257152e-001 2.397530e+000 56 53 48
-2.987638e-001 1.055451e+000 2.571170e+000 119 105 88
-2.987638e-001 1.055451e+000 2.571170e+000 119 105 88
-2.537862e-001 1.210514e+000 2.745348e+000 49 42 37
-3.011822e-001 7.247554e-001 2.386843e+000 127 111 96
-3.011822e-001 7.247554e-001 2.386843e+000 127 111 96
-2.957366e-001 7.681244e-001 2.418073e+000 119 110 93
-3.020820e-001 6.051881e-001 2.296430e+000 56 51 45
-2.826237e-001 4.719191e-001 2.245077e+000 127 116 95
-2.826237e-001 4.719191e-001 2.245077e+000 127 116 95
-2.545100e-001 1.359879e+000 2.650295e+000 115 108 89
-2.019770e-001 1.241939e+000 2.744234e+000 115 108 89
-1.833053e-001 1.311109e+000 2.779818e+000 50 45 41
3.965887e-003 1.072343e+000 2.524758e+000 49 46 37
6.026724e-003 1.073377e+000 2.530516e+000 49 46 37
3.665187e-002 1.093481e+000 2.544802e+000 54 47 39
1.117022e-001 1.599602e+000 2.895859e+000 50 41 34
2.790002e-001 3.766415e-001 1.923281e+000 107 92 73
3.026208e-001 3.807436e-001 1.916255e+000 114 98 82
3.685603e-001 3.881790e-001 1.891419e+000 116 103 84
3.685603e-001 3.881790e-001 1.891419e+000 116 103 84
3.831120e-001 3.754264e-001 1.875308e+000 161 152 133
-5.061080e-001 8.062769e-001 2.544402e+000 124 116 96
-4.392350e-001 1.761401e+000 2.988296e+000 130 114 92
-3.555238e-001 6.068219e-001 2.349715e+000 125 115 100
-3.638301e-001 6.210359e-001 2.335991e+000 125 115 100
-3.369808e-001 1.419367e+000 2.731782e+000 110 100 82
-2.774033e-001 1.244579e+000 2.773392e+000 43 39 35
-2.507105e-001 1.242195e+000 2.771164e+000 47 44 35
-2.455621e-001 1.284482e+000 2.800236e+000 49 45 37
-2.546447e-001 1.176320e+000 2.719534e+000 126 111 95
-2.570291e-001 1.120460e+000 2.684343e+000 127 116 96
-2.593969e-001 1.125626e+000 2.681578e+000 127 116 96
-2.894819e-001 1.459766e+000 2.715518e+000 129 116 99
-2.894819e-001 1.459766e+000 2.715518e+000 129 116 99
-2.276366e-001 1.210421e+000 2.736402e+000 42 38 29
-2.283590e-001 1.208215e+000 2.738991e+000 42 38 29
-2.084428e-001 1.240039e+000 2.754622e+000 45 42 33
-2.440408e-001 8.261060e-001 2.440716e+000 125 113 99
-2.448414e-001 8.289139e-001 2.439018e+000 125 113 99
-1.756294e-001 6.517472e-001 2.287336e+000 51 48 42
-1.756136e-001 6.525714e-001 2.286586e+000 51 48 42
-1.604369e-001 6.588391e-001 2.275436e+000 48 43 37
-1.555834e-001 6.517015e-001 2.280875e+000 48 43 37
1.392295e-001 1.879089e+000 3.105217e+000 125 110 90
2.172147e-001 5.578730e-001 2.072878e+000 137 126 106
2.172147e-001 5.578730e-001 2.072878e+000 137 126 106
3.095214e-001 6.610828e-001 2.125171e+000 141 128 111
3.095214e-001 6.610828e-001 2.125171e+000 141 128 111
3.654033e-001 8.598811e-001 2.258998e+000 141 132 113
3.654033e-001 8.598811e-001 2.258998e+000 141 132 113
3.805449e-001 3.713507e-001 1.856842e+000 98 86 70
-5.258304e-001 4.567398e-001 2.269551e+000 52 43 34
-4.900207e-001 7.493968e-001 2.493807e+000 117 108 93
-4.901333e-001 7.673311e-001 2.507044e+000 125 118 100
-4.819057e-001 4.777375e-001 2.317619e+000 142 130 118
-3.047625e-001 1.259265e+000 2.797770e+000 48 43 31
-3.462459e-001 7.971515e-001 2.459531e+000 44 42 33
-3.276979e-001 1.106838e+000 2.613645e+000 55 47 38
-3.154604e-001 4.814470e-001 2.260733e+000 134 128 113
-2.749820e-001 9.767730e-001 2.529726e+000 42 34 24
-2.749820e-001 9.767730e-001 2.529726e+000 42 34 24
-2.293896e-001 1.076797e+000 2.631682e+000 126 116 99
-2.018527e-001 1.197666e+000 2.711349e+000 42 34 25
-2.001894e-001 1.197669e+000 2.712557e+000 42 34 25
-1.824976e-001 5.475290e-001 2.215687e+000 56 49 41
-1.550450e-001 6.739090e-001 2.301191e+000 128 121 105
4.343499e-002 1.547828e+000 2.898179e+000 129 117 99
2.299806e-001 1.643981e+000 2.821567e+000 55 49 37
3.325651e-001 1.847167e+000 3.015305e+000 49 43 35
2.180428e-001 6.820535e-001 2.181261e+000 131 123 102
2.399319e-001 8.873978e-001 2.313231e+000 63 51 37
1.969235e-001 5.264967e-001 2.057686e+000 134 122 107
1.969235e-001 5.264967e-001 2.057686e+000 134 122 107
2.424644e-001 8.440348e-001 2.284187e+000 131 122 104
2.181460e-001 6.754271e-001 2.164372e+000 53 43 36
3.294221e-001 1.771323e+000 2.804842e+000 131 124 106
3.294221e-001 1.771323e+000 2.804842e+000 131 124 106
2.629096e-001 9.468139e-001 2.354824e+000 133 122 104
2.165094e-001 5.304350e-001 2.051937e+000 127 115 99
2.220802e-001 5.419494e-001 2.061225e+000 145 134 115
2.374415e-001 6.648240e-001 2.145939e+000 143 131 115
2.372557e-001 6.645240e-001 2.145217e+000 143 131 115
2.732730e-001 8.860827e-001 2.316478e+000 131 118 102
2.724603e-001 8.946817e-001 2.311932e+000 131 118 102
2.759473e-001 9.036344e-001 2.319962e+000 130 117 101
2.759473e-001 9.036344e-001 2.319962e+000 130 117 101
2.777864e-001 9.338699e-001 2.339875e+000 133 121 105
2.742657e-001 9.473855e-001 2.345735e+000 147 135 121
2.857078e-001 5.362389e-001 2.029027e+000 140 130 118
2.858544e-001 5.370351e-001 2.029113e+000 140 130 118
3.192628e-001 7.548327e-001 2.186096e+000 144 133 117
3.230445e-001 7.855069e-001 2.205979e+000 147 135 123
3.515216e-001 8.727088e-001 2.261482e+000 62 52 42
3.248868e-001 7.932653e-001 2.148255e+000 140 128 112
3.609801e-001 8.974799e-001 2.276603e+000 141 132 117
3.777383e-001 9.835943e-001 2.332158e+000 67 54 38
-6.031959e-001 1.868299e+000 3.043146e+000 98 92 86
-4.067572e-001 1.651512e+000 3.144817e+000 124 114 103
-5.024676e-001 7.503428e-001 2.488157e+000 47 37 26
-4.824249e-001 7.748598e-001 2.515123e+000 29 20 11
-4.824068e-001 7.746181e-001 2.497385e+000 44 35 27
-4.870743e-001 6.391169e-001 2.400704e+000 139 127 111
-3.162632e-001 9.878849e-001 2.542202e+000 125 114 103
-2.997805e-001 9.531932e-001 2.571496e+000 125 114 103
-3.054168e-001 7.253497e-001 2.407543e+000 52 46 37
-2.239497e-001 1.080198e+000 2.625294e+000 130 120 103
-2.258941e-001 9.017279e-001 2.472296e+000 44 32 20
-2.258941e-001 9.017279e-001 2.472296e+000 44 32 20
-1.699589e-001 8.002600e-001 2.395202e+000 119 112 102
-1.699589e-001 8.002600e-001 2.395202e+000 119 112 102
-1.825441e-001 5.230087e-001 2.232894e+000 58 52 42
-1.745443e-001 6.861367e-001 2.315113e+000 44 37 30
-1.625474e-001 6.828447e-001 2.324435e+000 131 125 113
-1.583104e-001 6.816438e-001 2.315683e+000 47 43 33
-1.511332e-001 6.470622e-001 2.300204e+000 130 124 110
-1.765557e-001 5.188853e-001 2.172490e+000 133 127 115
-1.546227e-001 6.173144e-001 2.257827e+000 139 133 121
-1.221652e-001 8.665969e-001 2.433976e+000 44 40 31
-1.221652e-001 8.665969e-001 2.433976e+000 44 40 31
-1.436200e-001 5.482863e-001 2.236308e+000 126 122 111
-1.436200e-001 5.482863e-001 2.236308e+000 126 122 111
1.343565e-001 1.617718e+000 2.913962e+000 132 120 103
3.270761e-001 1.866452e+000 3.025134e+000 51 45 35
2.906223e-001 1.625681e+000 2.848101e+000 48 43 31
3.388361e-001 1.860713e+000 3.016592e+000 49 40 33
3.021339e-001 1.982316e+000 2.918389e+000 45 39 30
2.424046e-001 9.067116e-001 2.327439e+000 67 55 41
2.344129e-001 8.148469e-001 2.265542e+000 66 54 39
2.408037e-001 8.208579e-001 2.265040e+000 143 131 115
2.408037e-001 8.208579e-001 2.265040e+000 143 131 115
2.244338e-001 8.335670e-001 2.220571e+000 146 135 117
2.398706e-001 8.762303e-001 2.242625e+000 147 133 120
2.291927e-001 7.201317e-001 2.158168e+000 61 51 39
2.485540e-001 8.282815e-001 2.213891e+000 52 44 30
2.532865e-001 8.744166e-001 2.240723e+000 141 131 114
2.678922e-001 8.389537e-001 2.271199e+000 141 131 114
2.516047e-001 8.924660e-001 2.242933e+000 140 128 112
2.448010e-001 6.546002e-001 2.139119e+000 58 46 30
2.874249e-001 9.434145e-001 2.344781e+000 54 41 25
3.267347e-001 8.717650e-001 2.267787e+000 66 54 39
3.140404e-001 7.790524e-001 2.203423e+000 50 38 23
3.432141e-001 9.803600e-001 2.343544e+000 62 49 33
3.277780e-001 8.080576e-001 2.236131e+000 145 135 119
3.385140e-001 8.722755e-001 2.268123e+000 57 47 37
3.385140e-001 8.722755e-001 2.268123e+000 57 47 37
3.412211e-001 8.873115e-001 2.279590e+000 59 47 35
3.035421e-001 5.648450e-001 2.048425e+000 133 124 109
3.461478e-001 8.643769e-001 2.261664e+000 144 137 120
3.461478e-001 8.643769e-001 2.261664e+000 144 137 120
3.367783e-001 9.708674e-001 2.250130e+000 144 134 122
3.373576e-001 9.328599e-001 2.232751e+000 63 53 40
3.262321e-001 7.926580e-001 2.150916e+000 139 127 112
3.534524e-001 8.227216e-001 2.225796e+000 134 125 110
3.191411e-001 6.582922e-001 2.073737e+000 50 41 26
3.158981e-001 5.591917e-001 2.030327e+000 150 139 123
3.486093e-001 7.799012e-001 2.194756e+000 54 42 29
3.686514e-001 9.326311e-001 2.302355e+000 147 137 122
3.686514e-001 9.326311e-001 2.302355e+000 147 137 122
3.798725e-001 9.486091e-001 2.321646e+000 54 42 26
3.756144e-001 9.390429e-001 2.299939e+000 53 41 27
-5.081855e-001 8.011737e-001 2.529103e+000 128 123 111
-4.877662e-001 7.975545e-001 2.532172e+000 132 127 113
-4.697370e-001 8.480214e-001 2.530187e+000 139 130 115
-4.697370e-001 8.480214e-001 2.530187e+000 139 130 115
-3.438409e-001 9.057137e-001 2.544246e+000 125 112 98
-3.364855e-001 6.930214e-001 2.402902e+000 121 121 110
-3.103107e-001 8.761169e-001 2.515099e+000 129 120 105
-3.252958e-001 6.823612e-001 2.387923e+000 131 120 99
-3.330358e-001 6.426996e-001 2.342229e+000 47 43 37
-3.080185e-001 6.780537e-001 2.373173e+000 47 40 30
-2.475873e-001 1.671256e+000 2.862003e+000 125 113 96
-2.836303e-001 5.252363e-001 2.235836e+000 116 108 94
-2.143517e-001 9.268301e-001 2.513152e+000 51 43 31
-1.709385e-001 7.931954e-001 2.380431e+000 125 121 112
-1.853559e-001 4.870625e-001 2.214686e+000 42 33 21
-1.853559e-001 4.870625e-001 2.214686e+000 42 33 21
-1.494618e-001 8.919187e-001 2.462599e+000 130 123 112
-1.614489e-001 7.685222e-001 2.370133e+000 110 105 93
-1.747190e-001 4.889441e-001 2.209308e+000 44 36 21
-1.563403e-001 5.210109e-001 2.216851e+000 141 137 127
-1.360163e-001 7.954574e-001 2.367350e+000 126 120 110
-1.286393e-001 8.044023e-001 2.388976e+000 36 29 19
-1.423580e-001 5.889492e-001 2.261314e+000 150 144 130
-1.423580e-001 5.889492e-001 2.261314e+000 150 144 130
1.485098e-001 1.598868e+000 2.880966e+000 130 121 105
2.175363e-001 8.774126e-001 2.256707e+000 44 34 21
1.949392e-001 5.608736e-001 2.083162e+000 55 43 29
2.047793e-001 6.534976e-001 2.136448e+000 147 138 121
2.091510e-001 7.150883e-001 2.166018e+000 47 38 21
1.980462e-001 5.569283e-001 2.078383e+000 143 134 117
2.545225e-001 9.576801e-001 2.360208e+000 57 44 30
2.545037e-001 9.551123e-001 2.363715e+000 57 44 30
2.112622e-001 6.634141e-001 2.137381e+000 141 131 119
2.112622e-001 6.634141e-001 2.137381e+000 141 131 119
2.292339e-001 7.495844e-001 2.177473e+000 145 133 119
2.411027e-001 7.153159e-001 2.202450e+000 145 133 119
2.214867e-001 6.364646e-001 2.113075e+000 139 130 113
2.573749e-001 8.517473e-001 2.290919e+000 135 123 107
2.210817e-001 5.754346e-001 2.086381e+000 47 35 19
2.556873e-001 8.511700e-001 2.283458e+000 128 116 103
2.556873e-001 8.511700e-001 2.283458e+000 128 116 103
2.385703e-001 8.237382e-001 2.213056e+000 144 135 118
2.854148e-001 5.802040e-001 2.063607e+000 63 52 36
2.916683e-001 6.001720e-001 2.058622e+000 150 141 124
2.916683e-001 6.001720e-001 2.058622e+000 150 141 124
2.872461e-001 5.734344e-001 2.026483e+000 135 126 113
3.556182e-001 9.443252e-001 2.333045e+000 62 50 34
3.062749e-001 7.388274e-001 2.130057e+000 60 47 31
3.062749e-001 7.388274e-001 2.130057e+000 60 47 31
3.375306e-001 9.547928e-001 2.246535e+000 145 137 124
3.606032e-001 9.160310e-001 2.287294e+000 56 46 34
3.481765e-001 1.053254e+000 2.284470e+000 125 112 95
-4.007208e-001 9.287606e-001 2.582739e+000 129 113 90
-4.061633e-001 6.926803e-001 2.411186e+000 130 114 91
3.395359e-001 8.239701e-001 2.229345e+000 76 67 53
2.154223e-001 5.284536e-001 2.070852e+000 120 107 90
-3.146647e-001 1.690935e+000 3.140274e+000 109 96 73
-5.701206e-001 5.000107e-001 2.331036e+000 126 111 92
-5.600274e-001 1.246495e+000 2.865088e+000 41 24 15
1.668302e-001 1.575803e+000 2.878296e+000 41 35 30
-3.095911e-001 5.554670e-001 2.275932e+000 130 114 88
-3.037010e-001 7.895805e-001 2.448079e+000 51 46 40
-3.230826e-001 1.273931e+000 2.804587e+000 120 104 80
-2.897076e-001 5.310300e-001 2.247344e+000 129 114 95
-3.665093e-001 1.547120e+000 3.073519e+000 113 98 76
9.603053e-002 1.588517e+000 2.897006e+000 49 40 31
-2.759323e-001 1.061912e+000 2.639418e+000 42 38 29
-2.879669e-001 1.159913e+000 2.718727e+000 114 99 76
-2.879669e-001 1.159913e+000 2.718727e+000 114 99 76
-3.664076e-001 6.031393e-001 2.320066e+000 126 114 91
-3.802164e-001 5.425804e-001 2.278957e+000 53 44 39
4.393198e-001 1.874526e+000 2.992944e+000 48 38 29
2.944561e-001 1.863233e+000 3.039269e+000 110 99 82
-2.243166e-001 4.420844e-001 2.145636e+000 143 130 112
-2.662298e-001 1.026964e+000 2.593612e+000 39 35 26
-3.639784e-001 7.319591e-001 2.417532e+000 120 107 84
-8.653474e-002 1.133707e+000 2.614471e+000 42 31 20
-8.653474e-002 1.133707e+000 2.614471e+000 42 31 20
3.627657e-001 3.444032e-001 1.887021e+000 80 67 50
3.702842e-001 9.532837e-001 2.310468e+000 36 23 7
3.677071e-001 9.452640e-001 2.306453e+000 129 116 100
3.677071e-001 9.452640e-001 2.306453e+000 129 116 100
3.403457e-001 7.727384e-001 2.187836e+000 128 116 100
3.099316e-001 7.046861e-001 2.156603e+000 128 115 98
3.313656e-001 8.795521e-001 2.272528e+000 129 117 100
-2.568436e-001 8.845840e-001 2.493164e+000 116 109 96
-2.568436e-001 8.845840e-001 2.493164e+000 116 109 96
-2.780802e-001 8.566235e-001 2.476295e+000 118 111 95
-2.737769e-001 8.522420e-001 2.479467e+000 118 111 95
-2.693418e-001 1.225889e+000 2.755563e+000 119 108 90
-4.652699e-001 8.298219e-001 2.534696e+000 34 26 10
3.325990e-001 7.486766e-001 2.185577e+000 56 44 29
3.325990e-001 7.486766e-001 2.185577e+000 56 44 29
3.348932e-001 8.037670e-001 2.227166e+000 128 116 102
1.180768e-001 1.619244e+000 2.926996e+000 125 111 93
-1.339058e-001 8.902329e-001 2.448476e+000 41 33 22
-1.339058e-001 8.902329e-001 2.448476e+000 41 33 22
-2.746169e-001 5.707338e-001 2.256142e+000 121 110 100
-4.780094e-001 7.573529e-001 2.480153e+000 125 116 107
-5.036843e-001 7.742220e-001 2.503830e+000 36 30 18
-5.036843e-001 7.742220e-001 2.503830e+000 36 30 18
2.695824e-001 2.574354e+000 2.928132e+000 161 175 188
-3.222125e-001 1.653598e+000 3.115081e+000 119 108 87
-5.830831e-001 8.692997e-001 2.619104e+000 27 14 9
-8.845817e-001 7.247102e-001 2.141696e+000 121 114 96
5.119455e-002 2.566549e+000 2.988261e+000 150 162 176
1.089430e-001 2.571355e+000 2.970027e+000 148 163 174
-5.860019e-001 4.529620e-001 2.304219e+000 138 127 109
-8.787834e-001 6.157060e-001 2.071312e+000 137 131 118
-7.958464e-001 2.308711e+000 3.135650e+000 109 102 85
-3.916207e-001 1.549521e+000 3.058626e+000 47 41 38
-9.240540e-002 9.550883e-001 2.489265e+000 53 52 49
-9.240540e-002 9.550883e-001 2.489265e+000 53 52 49
-5.736729e-001 7.431020e-001 2.510407e+000 136 125 106
-5.131274e-001 6.301078e-001 2.402822e+000 55 52 45
-5.536211e-001 4.470789e-001 2.276843e+000 65 61 55
-7.546079e-001 1.919685e+000 2.878541e+000 142 156 167
-1.890946e-001 1.246862e+000 2.741086e+000 45 42 37
-8.500451e-001 1.028731e+000 2.329125e+000 121 118 103
-2.805358e-001 7.317371e-001 2.388035e+000 56 57 51
5.960291e-001 2.571919e+000 2.802719e+000 181 197 212
5.960291e-001 2.571919e+000 2.802719e+000 181 197 212
-3.200149e-001 1.675547e+000 3.132379e+000 128 115 94
-3.651528e-001 1.544494e+000 3.048987e+000 50 41 38
-8.532551e-004 1.315741e+000 2.720359e+000 54 45 36
-8.458152e-001 1.085603e+000 2.364447e+000 123 118 103
1.640392e+000 2.674700e+000 2.478264e+000 147 141 129
3.522254e-001 1.812159e+000 2.977784e+000 47 38 29
-3.288330e-001 1.717156e+000 3.174191e+000 31 21 11
-3.288330e-001 1.717156e+000 3.174191e+000 31 21 11
3.638417e-001 1.700405e+000 2.877330e+000 128 116 103
3.638417e-001 1.700405e+000 2.877330e+000 128 116 103
-5.344416e-001 1.536182e+000 3.094855e+000 146 136 122
-3.007702e-001 1.268623e+000 2.800941e+000 125 119 101
-3.007702e-001 1.268623e+000 2.800941e+000 125 119 101
-1.215986e-001 8.845220e-001 2.446876e+000 54 46 43
3.694162e-001 1.717950e+000 2.890980e+000 131 119 103
-7.565337e-001 1.959493e+000 2.906497e+000 151 165 176
2.810353e-001 1.612904e+000 2.840165e+000 36 29 21
3.747850e-001 9.387057e-001 2.296460e+000 71 58 42
2.590199e-001 7.999272e-001 2.236420e+000 55 43 29
2.354088e-001 7.867725e-001 2.238091e+000 151 139 124
2.293319e-001 7.796810e-001 2.234479e+000 60 48 31
2.222170e-001 7.218048e-001 2.194213e+000 141 129 115
-1.757310e-001 6.674144e-001 2.305539e+000 46 39 29
3.330324e-001 6.867533e-001 2.123371e+000 71 62 47
-1.770271e-001 6.166071e-001 2.268464e+000 123 117 103
-3.238610e-001 6.051908e-001 2.313436e+000 138 130 116
4.027836e-001 1.796793e+000 2.948097e+000 125 113 99
-1.497161e-001 8.918354e-001 2.461631e+000 137 131 119
3.476276e-001 8.946707e-001 2.272720e+000 145 133 119
-1.552267e-001 8.096781e-001 2.398632e+000 131 122 112
2.345246e-001 8.151076e-001 2.260104e+000 55 43 28
3.137800e-001 6.481565e-001 2.102868e+000 59 47 35
-1.667115e-001 6.050208e-001 2.253837e+000 134 131 116
2.974803e-001 5.854306e-001 2.061081e+000 72 62 51
-2.658917e-001 1.026737e+000 2.604345e+000 45 42 35
-1.388458e-001 8.986236e-001 2.456840e+000 125 118 100
-3.008253e-001 5.163483e-001 2.195100e+000 128 116 93
-3.008253e-001 5.163483e-001 2.195100e+000 128 116 93
-2.259703e-001 5.431601e-001 2.188365e+000 50 49 44
-1.114885e-001 7.012964e-001 2.268285e+000 138 123 103
-3.533858e-001 1.527050e+000 3.045629e+000 121 104 84
-3.604564e-001 1.541388e+000 3.034540e+000 121 104 84
-3.648392e-001 7.473333e-001 2.430909e+000 49 48 43
-3.491929e-001 7.257868e-001 2.405796e+000 45 45 41
-2.704210e-001 1.317790e+000 2.829273e+000 48 48 43
-3.447335e-001 5.274845e-001 2.246688e+000 49 48 43
-3.447335e-001 5.274845e-001 2.246688e+000 49 48 43
-2.713065e-001 1.099491e+000 2.663386e+000 127 111 90
-2.713065e-001 1.099491e+000 2.663386e+000 127 111 90
-2.099880e-001 1.114550e+000 2.633699e+000 127 112 93
-5.308812e-001 6.100089e-001 2.401761e+000 137 124 100
-5.069456e-001 6.897020e-001 2.468288e+000 128 117 98
-3.525455e-001 1.745528e+000 3.192256e+000 120 106 80
-2.699863e-001 1.528270e+000 2.992904e+000 129 115 95
3.385390e-001 7.206962e-001 2.192519e+000 137 125 109
7.276715e-001 -1.050567e-001 2.362530e+000 203 219 233
-5.510705e-001 4.236736e-001 2.257678e+000 131 116 95
-3.420580e-001 1.829885e+000 3.251284e+000 42 32 26
-3.333308e-001 8.085091e-001 2.462242e+000 134 119 99
-2.961357e-001 1.125944e+000 2.683273e+000 52 45 37
9.110368e-001 1.085929e-001 2.720002e+000 191 204 214
3.304110e-001 7.789517e-001 2.238546e+000 135 126 109
8.445269e-001 2.318643e-002 2.499027e+000 194 210 223
9.442617e-001 1.658406e-001 2.677082e+000 138 155 165
-5.035977e-001 7.607674e-001 2.518195e+000 124 116 103
-3.217682e-001 9.503263e-001 2.558068e+000 135 129 110
-2.000814e-001 5.383571e-001 2.171967e+000 129 122 106
-1.685877e-001 5.942466e-001 2.227923e+000 127 121 107
2.482262e-001 9.390949e-001 2.351267e+000 151 139 125
2.366623e-001 8.095733e-001 2.268182e+000 66 54 39
9.831301e-001 1.286669e-001 2.735459e+000 44 58 70
-5.028594e-001 8.211218e-001 2.588174e+000 39 26 13
-2.551103e-001 1.162598e+000 2.690963e+000 119 109 99
-2.586031e-001 9.911522e-001 2.578470e+000 137 126 113
-1.677694e-001 8.135179e-001 2.395464e+000 123 117 105
-1.348247e-001 8.574243e-001 2.400575e+000 126 121 109
3.473992e-001 7.732392e-001 2.228848e+000 60 50 38
3.790582e-001 8.661723e-001 2.284623e+000 68 56 40
3.790582e-001 8.661723e-001 2.284623e+000 68 56 40
7.291436e-001 2.037014e-001 2.703804e+000 190 204 217
7.291436e-001 2.037014e-001 2.703804e+000 190 204 217
7.623659e-001 2.102166e-001 2.716112e+000 79 92 108
7.317671e-001 -7.866521e-002 2.406235e+000 203 221 233
9.036504e-001 5.979024e-002 2.695230e+000 51 64 76
-1.632437e-001 6.465735e-001 2.267465e+000 79 72 59
-4.862468e-001 6.931789e-001 2.450153e+000 54 48 34
3.667310e-001 9.128207e-001 2.308589e+000 123 111 95
-4.743080e-001 8.489026e-001 2.571572e+000 91 82 71
3.520597e-001 8.116909e-001 2.240417e+000 76 67 53
-2.108776e-001 8.638293e-001 2.454300e+000 128 112 90
-5.593472e-001 8.676292e-001 2.632838e+000 49 31 19
3.461725e-001 4.428609e-001 2.046417e+000 51 50 42
-9.970757e-002 9.649048e-001 2.485393e+000 40 41 31
-2.795504e-001 7.130129e-001 2.369736e+000 48 45 38
-3.187871e-001 5.623694e-001 2.267367e+000 130 114 88
-2.988092e-001 8.406232e-001 2.479172e+000 39 36 31
-5.579158e-001 1.180345e+000 2.899152e+000 140 133 114
7.723617e-001 3.784941e-001 2.092812e+000 133 62 72
-1.556587e-001 8.038782e-001 2.395001e+000 66 59 44
-2.832665e-001 1.106784e+000 2.681011e+000 46 42 34
-2.906225e-001 1.153050e+000 2.719415e+000 119 103 78
-2.906225e-001 1.153050e+000 2.719415e+000 119 103 78
-5.058178e-001 7.548854e-001 2.510543e+000 55 42 34
-2.985867e-001 5.042981e-001 2.204713e+000 116 105 88
-2.346479e-001 1.021342e+000 2.586366e+000 127 110 93
-2.346479e-001 1.021342e+000 2.586366e+000 127 110 93
-5.701199e-001 4.613173e-001 2.219373e+000 131 118 98
-5.067106e-001 6.434477e-001 2.421433e+000 127 113 93
-5.067106e-001 6.434477e-001 2.421433e+000 127 113 93
-5.379903e-001 4.843812e-001 2.310895e+000 41 32 22
-4.991146e-001 8.290366e-001 2.562988e+000 42 37 30
2.355624e-001 9.079456e-001 2.309077e+000 129 116 99
-1.417229e-001 5.141355e-001 2.197269e+000 92 84 71
-1.984761e-001 8.811266e-001 2.508989e+000 121 108 89
-2.275161e-001 8.868908e-001 2.479751e+000 49 42 33
-3.000276e-001 7.380429e-001 2.395984e+000 122 114 93
-2.489198e-001 9.658763e-001 2.590196e+000 45 38 28
-2.529022e-001 1.178542e+000 2.718621e+000 119 104 84
-3.257185e-001 7.774668e-001 2.439793e+000 122 110 96
-3.215642e-001 8.794417e-001 2.518344e+000 46 38 35
-3.071945e-001 8.685092e-001 2.529132e+000 46 38 35
-3.047030e-001 1.009860e+000 2.612888e+000 46 40 28
-3.083191e-001 9.816133e-001 2.591337e+000 39 32 24
-4.504123e-001 8.247066e-001 2.536830e+000 48 40 27
3.494707e-001 9.910595e-001 2.321016e+000 59 43 28
3.345682e-001 8.908073e-001 2.284550e+000 132 120 104
2.663124e-001 1.879235e+000 3.047874e+000 41 34 22
-1.460216e-001 5.372217e-001 2.215505e+000 44 37 27
-2.323681e-001 9.621966e-001 2.543108e+000 128 117 98
-2.772601e-001 1.118543e+000 2.693119e+000 112 104 89
-3.276792e-001 1.496199e+000 3.066717e+000 102 93 75
3.670211e-001 7.971249e-001 2.246382e+000 129 117 102
3.449436e-001 6.066456e-001 2.148691e+000 134 123 105
2.420635e-001 7.924058e-001 2.257600e+000 134 121 105
9.386930e-002 1.584047e+000 2.890610e+000 31 24 11
-4.885515e-001 7.506848e-001 2.494658e+000 123 113 98
3.483056e-001 6.229050e-001 2.106851e+000 61 50 32
3.483056e-001 6.229050e-001 2.106851e+000 61 50 32
2.461969e-001 8.623828e-001 2.281721e+000 132 119 102
-1.076951e-001 8.632009e-001 2.456884e+000 111 107 96
-2.941338e-001 4.462216e-001 2.164744e+000 49 36 24
-1.886603e-001 1.068837e+000 2.625197e+000 120 105 88
-3.122193e-001 5.605495e-001 2.274318e+000 137 126 105
-2.431404e-001 9.086677e-001 2.504494e+000 130 118 104
3.621889e-001 8.394553e-001 2.247034e+000 147 135 121
-4.902095e-001 7.424597e-001 2.498140e+000 133 125 106
-4.752532e-001 7.712527e-001 2.515352e+000 144 138 122
3.527406e-001 7.849047e-001 2.222037e+000 144 135 117
-1.836650e-001 6.350309e-001 2.274489e+000 34 28 16
2.572658e-001 9.192281e-001 2.369703e+000 147 134 118
2.499891e-001 9.515645e-001 2.355148e+000 147 134 118
-4.621227e-001 8.640391e-001 2.585286e+000 141 132 120
-1.367532e-001 9.095939e-001 2.443560e+000 132 124 112
-1.367532e-001 9.095939e-001 2.443560e+000 132 124 112
-3.347854e-001 7.899224e-001 2.514836e+000 62 53 43
3.666212e-001 8.447767e-001 2.262425e+000 130 118 104
8.715106e-001 1.425772e-001 2.731984e+000 51 63 75
9.189693e-001 6.880913e-002 2.689968e+000 47 57 71
3.163441e-001 6.882974e-001 2.172262e+000 65 52 36
3.143342e-001 6.841321e-001 2.168924e+000 65 52 36
-1.244543e-001 1.277590e+000 2.737381e+000 140 127 110
-1.667428e-001 9.605167e-001 2.514241e+000 60 58 54
1.837308e-002 1.536503e+000 2.828862e+000 63 59 51
-2.310219e-001 1.290257e+000 2.784664e+000 57 57 50
-4.457141e-003 1.118155e+000 2.561787e+000 50 41 36
-3.819172e-001 1.610519e+000 3.099355e+000 48 38 32
-5.249184e-001 7.350561e-001 2.494573e+000 148 143 131
9.709916e-002 1.600166e+000 2.903574e+000 154 146 136
1.476396e-001 1.597340e+000 2.890870e+000 147 142 131
-4.908203e-001 8.710392e-001 2.590579e+000 139 140 128
-2.473164e-001 1.190661e+000 2.725261e+000 139 127 110
-5.237403e-001 6.795612e-001 2.465566e+000 57 55 56
-2.465350e-001 9.884384e-001 2.569978e+000 142 129 112
-2.228747e-001 9.178465e-001 2.501678e+000 53 54 47
-3.292708e-001 1.130628e+000 2.721185e+000 144 132 116
-9.511280e-002 1.157512e+000 2.628933e+000 67 60 52
-2.988529e-001 1.097924e+000 2.685436e+000 146 134 119
3.344069e-001 6.780245e-001 2.163547e+000 144 136 123
3.344069e-001 6.780245e-001 2.163547e+000 144 136 123
-1.712846e-001 7.827040e-001 2.367161e+000 127 119 111
-4.642482e-001 8.345427e-001 2.562000e+000 122 116 104
2.525338e-001 9.519538e-001 2.367915e+000 72 60 43
2.603341e-001 9.494580e-001 2.365145e+000 153 141 125
2.669995e-001 8.819914e-001 2.313628e+000 88 79 62
1.524163e-001 3.127623e+000 2.434451e+000 174 190 203
-1.211486e-001 3.219393e+000 2.428698e+000 159 173 184
-5.303659e-002 3.201812e+000 2.425851e+000 159 173 184
-3.534051e-001 7.446112e-001 2.427878e+000 46 45 43
-3.052187e-001 5.760455e-001 2.280454e+000 50 47 40
-3.651279e-001 1.580908e+000 3.101056e+000 48 33 25
-2.799605e-001 1.301704e+000 2.826063e+000 110 100 82
-1.977079e-001 1.334572e+000 2.817680e+000 131 119 103
-2.803204e-001 6.081956e-001 2.295678e+000 38 31 24
1.187807e+000 2.678897e-001 2.119490e+000 180 198 212
2.995276e-001 1.875936e+000 3.031210e+000 34 30 19
1.022978e+000 1.026450e+000 3.392020e+000 48 38 29
-2.607918e-001 1.018443e+000 2.598519e+000 39 35 26
-3.653522e-001 6.206315e-001 2.334657e+000 120 108 87
1.538761e-001 1.572287e+000 2.865146e+000 111 98 82
-1.864212e-001 5.375859e-001 2.207249e+000 99 93 81
-1.864212e-001 5.375859e-001 2.207249e+000 99 93 81
-1.972438e-001 1.111245e+000 2.644251e+000 113 95 78
-4.945783e-001 8.129991e-001 2.547899e+000 138 126 106
-2.780720e-001 1.211476e+000 2.762638e+000 55 49 39
2.522959e-001 1.623161e+000 2.851651e+000 134 122 109
3.172805e-001 1.907409e+000 3.046867e+000 134 119 104
-2.191093e-001 1.853581e+000 3.217377e+000 52 51 47
3.706571e-001 1.831166e+000 3.018951e+000 148 141 130
3.682755e-001 1.834836e+000 3.004350e+000 148 141 130
-2.377114e-001 1.279010e+000 2.786359e+000 58 59 54
-2.377114e-001 1.279010e+000 2.786359e+000 58 59 54
-3.967131e-001 8.040033e-001 2.491869e+000 142 129 112
-3.049251e-001 5.354558e-001 2.242451e+000 141 129 111
2.569764e-001 9.382514e-001 2.350737e+000 81 70 59
-3.341787e-001 9.462719e-001 2.573033e+000 142 130 114
-3.358641e-001 9.662384e-001 2.592142e+000 54 53 52
-1.853142e-001 5.807298e-001 2.231625e+000 113 106 93
-3.319950e-001 6.237159e-001 2.319882e+000 133 125 106
-1.635386e-001 9.606654e-001 2.512877e+000 59 56 53
-5.327486e-001 7.547162e-001 2.521981e+000 146 133 115
-5.091849e-001 5.412320e-001 2.331750e+000 138 127 109
-3.199272e-001 1.014152e+000 2.620268e+000 144 132 116
-2.381864e-001 1.522655e+000 2.980499e+000 137 129 111
-3.531029e-001 5.905364e-001 2.304127e+000 119 111 105
-2.852822e-001 5.718303e-001 2.263835e+000 145 138 120
-2.985728e-001 1.272602e+000 2.811893e+000 62 58 48
-1.496594e-001 9.723231e-001 2.515670e+000 141 130 112
-5.686487e-001 4.285526e-001 2.268682e+000 62 53 44
-2.831300e-001 1.210479e+000 2.753819e+000 132 125 107
-5.035091e-001 6.277848e-001 2.402238e+000 103 99 90
-1.363706e-001 8.603499e-001 2.422167e+000 55 51 44
-2.162305e-001 8.296618e-001 2.435108e+000 145 130 109
-2.312268e-001 1.215905e+000 2.680374e+000 140 125 106
-2.522710e-001 8.037556e-001 2.442221e+000 54 49 43
-2.178736e-001 1.140065e+000 2.634875e+000 143 128 106
-2.563700e-001 1.033147e+000 2.602255e+000 48 47 42
-3.003801e-001 8.387017e-001 2.484481e+000 51 46 38
-1.675702e-001 1.281834e+000 2.715180e+000 44 45 40
-3.257756e-001 1.024664e+000 2.627750e+000 47 47 39
-3.257756e-001 1.024664e+000 2.627750e+000 47 47 39
-3.359311e-001 9.614623e-001 2.591839e+000 50 45 42
-3.479603e-001 8.870899e-001 2.547923e+000 50 46 39
-3.802010e-001 6.279900e-001 2.361695e+000 57 54 47
1.632069e-002 1.511408e+000 2.938215e+000 50 44 36
-2.830789e-001 7.682924e-001 2.430370e+000 54 49 46
-3.316283e-001 4.781530e-001 2.204262e+000 141 128 111
-3.214475e-001 9.086954e-001 2.550428e+000 58 50 48
2.652685e-001 1.687454e+000 2.821279e+000 135 120 97
-6.471953e-003 1.501356e+000 2.956099e+000 45 37 31
-2.023940e-001 1.261110e+000 2.847898e+000 43 42 31
-2.535745e-001 1.050279e+000 2.609132e+000 48 48 42
-2.576216e-001 1.021022e+000 2.590232e+000 49 47 38
-2.576606e-001 1.020820e+000 2.590470e+000 49 47 38
-3.252532e-001 8.748879e-001 2.524768e+000 57 51 41
3.749532e-001 1.713756e+000 2.747124e+000 130 121 104
-2.384194e-001 1.228051e+000 2.705305e+000 52 45 32
-2.704957e-001 1.234898e+000 2.766491e+000 47 42 33
2.679520e-001 9.457668e-001 2.343106e+000 142 130 115
-3.206206e-001 9.907555e-001 2.610768e+000 142 130 106
-4.607581e-001 8.232551e-001 2.563166e+000 147 138 123
-5.720055e-001 4.392563e-001 2.312948e+000 143 132 113
-1.570263e-001 8.469354e-001 2.422070e+000 48 44 33
-2.849247e-001 6.725931e-001 2.348160e+000 142 135 119
-4.687848e-001 8.473829e-001 2.581797e+000 142 134 118
-4.847545e-001 7.397671e-001 2.507260e+000 45 38 20
-1.136201e+000 1.741899e+000 -1.378719e+000 0 255 0
-1.149436e+000 1.756914e+000 -1.424538e+000 255 255 0
-9.656909e-001 -1.376631e-001 -8.364486e-001 255 0 0
-9.765648e-001 -1.477461e-001 -8.841989e-001 255 255 0
2.779088e+000 -5.066977e+000 7.879875e+000 0 255 0
2.765384e+000 -5.030421e+000 7.848635e+000 255 255 0
3.055543e+000 -1.956622e+000 4.827587e+000 255 0 0
3.027088e+000 -1.927063e+000 4.799012e+000 255 255 0
4.234100e+002 -1.009400e+003 7.943719e+002 0 255 0
4.233944e+002 -1.009363e+003 7.943426e+002 255 255 0
2.205153e+000 9.476907e-001 9.586652e+000 255 0 0
2.189830e+000 9.537723e-001 9.539448e+000 255 255 0
1.492796e+002 -1.738434e+002 1.111376e+002 0 255 0
1.492502e+002 -1.738090e+002 1.111163e+002 255 255 0
-1.407305e+002 -2.052910e+002 3.348806e+002 255 0 0
-1.407135e+002 -2.052662e+002 3.348407e+002 255 255 0
-9.626409e-001 -7.747572e-002 4.923538e+000 0 255 0
-9.491631e-001 -5.014254e-002 4.883899e+000 255 255 0
-9.642257e+000 9.434407e+000 -6.898898e+000 255 0 0
-9.671728e+000 9.461464e+000 -6.928888e+000 255 255 0
6.937261e-001 -2.859859e+000 3.588772e+000 0 255 0
6.843555e-001 -2.811151e+000 3.582471e+000 255 255 0
